<svg xmlns="http://www.w3.org/2000/svg" width="216.576" height="39.376" viewBox="0 0 216.576 39.376"><path d="M17.05,4.89a11.356,11.356,0,0,0,0,22.713,13.378,13.378,0,0,0,8.919-3.82l3.226,3.6A18.3,18.3,0,0,1,16.782,32.7,16.351,16.351,0,0,1,0,16.351C0,7.09,7.432,0,16.96,0A17.837,17.837,0,0,1,29.224,4.98L26.043,8.993A12.59,12.59,0,0,0,17.05,4.89Z" transform="translate(0)" fill="#394959"/><path d="M31.6.12V14.137H48.709V.12h5.455V32.391H48.709V19.013H31.6V32.391H26.16V.12Z" transform="translate(12.725 0.058)" fill="#394959"/><path d="M67.017,0c8.815,0,14.225,5.2,14.225,13.6V32.449H75.787V23.783H58.455V32.4H53V13.6C53,5.2,58.366,0,67.017,0Zm0,4.89c-5.4,0-8.666,3.315-8.621,8.711v5.381H75.787V13.6c-.059-5.4-3.27-8.711-8.711-8.711Z" transform="translate(25.782)" fill="#394959"/><path d="M105.552,11.135c0,7.284-4.653,11.535-12.769,11.535H85.351v9.721H80V12.978A12.858,12.858,0,0,1,92.784.12h0C100.9.12,105.552,4.133,105.552,11.135Zm-5.217.149c0-4.251-2.809-6.273-7.789-6.273h0a7.194,7.194,0,0,0-7.18,7.194v5.574h7.18C97.525,17.779,100.335,15.653,100.335,11.283Z" transform="translate(38.916 0.058)" fill="#394959"/><path d="M129.2,11.135c0,7.284-4.653,11.535-12.769,11.535H109v9.721h-5.44V12.978A12.858,12.858,0,0,1,116.433.12h0C124.549.12,129.2,4.133,129.2,11.135Zm-5.2.149c0-4.251-2.809-6.273-7.789-6.273h0a7.194,7.194,0,0,0-7.194,7.194v5.574h7.194C121.189,17.779,124,15.653,124,11.283Z" transform="translate(50.376 0.058)" fill="#394959"/><path d="M149.55.38V12.866a7.18,7.18,0,0,1-6.317,7.432V.439h-4.89V20.328a7.194,7.194,0,0,1-6.407-7.432V.38h-5.44V13.372a11.505,11.505,0,0,0,11.892,12.085V39.191h4.89V25.442a11.475,11.475,0,0,0,11.758-12.07V.38Z" transform="translate(61.526 0.185)" fill="#394959"/></svg>