<svg xmlns="http://www.w3.org/2000/svg" width="32" height="32.046" viewBox="0 0 32 32.046"><path d="M46.235,38.547a5.528,5.528,0,0,0-.746-1.345,1.225,1.225,0,0,0-.608-.424l-5.455-1.649a1.253,1.253,0,0,0-.737,0,5.878,5.878,0,0,0-3,2.423A17.884,17.884,0,0,1,23.707,25.574a5.971,5.971,0,0,0,2.451-3.022,1.189,1.189,0,0,0,0-.737L24.509,16.36a1.225,1.225,0,0,0-.424-.608,5.869,5.869,0,0,0-1.382-.765,6.081,6.081,0,0,0-2.128-.387,5.925,5.925,0,0,0-5.925,5.925A26.122,26.122,0,0,0,40.716,46.646a5.943,5.943,0,0,0,5.934-5.934A5.8,5.8,0,0,0,46.235,38.547Z" transform="translate(-14.65 -14.6)" fill="#495057"/></svg>