<svg xmlns="http://www.w3.org/2000/svg" width="18.861" height="18.052" viewBox="0 0 18.861 18.052"><path d="M2098.377-309.493l1.623,5a.7.7,0,0,0,.668.485h5.253a.7.7,0,0,1,.413,1.27l-4.25,3.088a.7.7,0,0,0-.255.785l1.623,5a.7.7,0,0,1-1.081.785l-4.25-3.088a.7.7,0,0,0-.826,0l-4.25,3.088a.7.7,0,0,1-1.081-.785l1.623-5a.7.7,0,0,0-.255-.785l-4.25-3.088a.7.7,0,0,1,.413-1.27h5.253a.7.7,0,0,0,.668-.485l1.623-5A.7.7,0,0,1,2098.377-309.493Z" transform="translate(-2088.279 310.478)" fill="#e7711b" stroke="#e7711b" stroke-width="1"/></svg>