<svg xmlns="http://www.w3.org/2000/svg" width="19.367" height="18.558" viewBox="0 0 19.367 18.558">
  <g id="별_5" data-name="별 5" transform="translate(-709.583 -588.25)">
    <path id="별_라인" data-name="별 라인" d="M2098.377-309.493l1.623,5a.7.7,0,0,0,.668.485h5.253a.7.7,0,0,1,.413,1.27l-4.25,3.088a.7.7,0,0,0-.255.785l1.623,5a.7.7,0,0,1-1.081.785l-4.25-3.088a.7.7,0,0,0-.826,0l-4.25,3.088a.7.7,0,0,1-1.081-.785l1.623-5a.7.7,0,0,0-.255-.785l-4.25-3.088a.7.7,0,0,1,.413-1.27h5.253a.7.7,0,0,0,.668-.485l1.623-5A.7.7,0,0,1,2098.377-309.493Z" transform="translate(-1378.443 898.978)" fill="none" stroke="#e7711b" stroke-width="1.5"/>
  </g>
</svg>
