<svg xmlns="http://www.w3.org/2000/svg" width="19.367" height="18.558" viewBox="0 0 19.367 18.558"><g transform="translate(-709.583 -588.25)"><path d="M2097.844-309.923c-.041,5.767-.1,8.007,0,13.328a.682.682,0,0,0-.8,0l-4.123,3a.681.681,0,0,1-1.048-.762l1.575-4.847a.681.681,0,0,0-.248-.762l-4.123-3a.681.681,0,0,1,.4-1.232h5.1a.681.681,0,0,0,.648-.471l1.575-4.847C2097-310.143,2097.639-310.551,2097.844-309.923Z" transform="translate(-1378.303 899.237)" fill="#e7711b" stroke="#fff" stroke-width="1"/><path d="M2098.377-309.493l1.623,5a.7.7,0,0,0,.668.485h5.253a.7.7,0,0,1,.413,1.27l-4.25,3.088a.7.7,0,0,0-.255.785l1.623,5a.7.7,0,0,1-1.081.785l-4.25-3.088a.7.7,0,0,0-.826,0l-4.25,3.088a.7.7,0,0,1-1.081-.785l1.623-5a.7.7,0,0,0-.255-.785l-4.25-3.088a.7.7,0,0,1,.413-1.27h5.253a.7.7,0,0,0,.668-.485l1.623-5A.7.7,0,0,1,2098.377-309.493Z" transform="translate(-1378.443 898.978)" fill="none" stroke="#e7711b" stroke-width="1.5"/></g></svg>