<svg xmlns="http://www.w3.org/2000/svg" width="32" height="32" viewBox="0 0 32 32"><g transform="translate(-784 -729)"><circle cx="16" cy="16" r="16" transform="translate(784 729)" fill="#495057"/><g transform="translate(-4.109 -4.743)"><path d="M38.919,42.409a1.571,1.571,0,0,1-1.111-2.681l4.911-4.912V24.886a1.57,1.57,0,1,1,3.14,0V35.465a1.571,1.571,0,0,1-.459,1.111L40.03,41.948A1.567,1.567,0,0,1,38.919,42.409Z" transform="translate(760 716.092)" fill="#fff"/><path d="M77.88,49.011H76.253a1.035,1.035,0,1,1,0-2.071H77.88a1.035,1.035,0,1,1,0,2.071Z" transform="translate(737.815 702.252)" fill="#fff"/><path d="M69.225,66.984a1.033,1.033,0,0,1-.732-.3l-1.15-1.15a1.035,1.035,0,0,1,1.464-1.464l1.15,1.15a1.035,1.035,0,0,1-.732,1.767Z" transform="translate(742.606 692.397)" fill="#fff"/><path d="M51.254,74.427a1.035,1.035,0,0,1-1.035-1.035V71.765a1.035,1.035,0,0,1,2.071,0v1.627A1.035,1.035,0,0,1,51.254,74.427Z" transform="translate(752.46 688.316)" fill="#fff"/><path d="M68.076,30.561a1.035,1.035,0,0,1-.732-1.768l1.149-1.15a1.035,1.035,0,0,1,1.464,1.465l-1.149,1.15A1.031,1.031,0,0,1,68.076,30.561Z" transform="translate(742.606 713.734)" fill="#fff"/></g></g></svg>